<svg width="27" height="27" viewBox="0 0 27 27" fill="none" xmlns="http://www.w3.org/2000/svg">
<path d="M2.53653 17.3749H8.55542C8.41022 16.1509 8.33337 14.849 8.33337 13.4999C8.33337 12.1508 8.41022 10.849 8.55542 9.62492H2.53653C2.10814 10.8369 1.87504 12.1412 1.87504 13.4999C1.87504 14.8586 2.10814 16.1629 2.53653 17.3749ZM3.08342 18.6666C4.621 21.7606 7.49647 24.0724 10.9529 24.845C9.94653 23.4752 9.17575 21.2979 8.73864 18.6666H3.08342ZM24.4636 17.3749C24.8919 16.1629 25.125 14.8586 25.125 13.4999C25.125 12.1412 24.8919 10.8369 24.4636 9.62492H18.4447C18.5899 10.849 18.6667 12.1508 18.6667 13.4999C18.6667 14.849 18.5899 16.1509 18.4447 17.3749H24.4636ZM23.9167 18.6666H18.2614C17.8243 21.2979 17.0536 23.4752 16.0472 24.845C19.5036 24.0724 22.3791 21.7606 23.9167 18.6666ZM9.86323 17.3749H17.1369C17.2898 16.1638 17.375 14.8598 17.375 13.4999C17.375 12.14 17.2898 10.836 17.1369 9.62492H9.86323C9.71027 10.836 9.62504 12.14 9.62504 13.4999C9.62504 14.8598 9.71027 16.1638 9.86323 17.3749ZM10.0577 18.6666C10.7322 22.5 12.1026 25.1249 13.5 25.1249C14.8975 25.1249 16.2679 22.5 16.9424 18.6666H10.0577ZM3.08342 8.33325H8.73864C9.17575 5.70195 9.94653 3.52467 10.9529 2.15483C7.49647 2.92747 4.621 5.23927 3.08342 8.33325ZM23.9167 8.33325C22.3791 5.23927 19.5036 2.92747 16.0472 2.15483C17.0536 3.52467 17.8243 5.70195 18.2614 8.33325H23.9167ZM10.0577 8.33325H16.9424C16.2679 4.49981 14.8975 1.87492 13.5 1.87492C12.1026 1.87492 10.7322 4.49981 10.0577 8.33325ZM13.5 26.4166C6.36636 26.4166 0.583374 20.6336 0.583374 13.4999C0.583374 6.36624 6.36636 0.583252 13.5 0.583252C20.6337 0.583252 26.4167 6.36624 26.4167 13.4999C26.4167 20.6336 20.6337 26.4166 13.5 26.4166Z" fill="url(#paint0_linear_51_172)"/>
<defs>
<linearGradient id="paint0_linear_51_172" x1="18" y1="23" x2="7.5" y2="3" gradientUnits="userSpaceOnUse">
<stop stop-color="#5E096C"/>
<stop offset="1" stop-color="#951EA9"/>
</linearGradient>
</defs>
</svg>
